<svg xmlns="http://www.w3.org/2000/svg" xmlns:xlink="http://www.w3.org/1999/xlink" viewBox="0 0 207 34"><g transform="translate(4.253 4.25)"><path d="M 0 25.5 L 0 0 L 59.548 0 L 59.548 25.5 Z" fill="transparent"></path><path d="M 51.094 14.138 L 51.094 22.267 C 46.923 22.274 42.873 20.866 39.606 18.274 C 37.179 16.356 35.272 13.86 34.059 11.015 C 33.854 10.529 33.486 10.129 33.018 9.882 C 32.551 9.636 32.013 9.559 31.495 9.663 C 30.977 9.768 30.511 10.049 30.176 10.457 C 29.842 10.866 29.659 11.378 29.658 11.906 C 29.658 12.026 29.668 12.145 29.689 12.264 C 29.693 12.308 29.701 12.351 29.712 12.394 C 29.965 13.882 29.891 15.407 29.494 16.863 C 29.096 18.319 28.386 19.671 27.412 20.824 C 26.438 21.978 25.224 22.905 23.855 23.541 C 22.485 24.178 20.993 24.508 19.483 24.509 C 19.148 24.509 18.837 24.509 18.519 24.466 C 16.651 24.291 14.866 23.614 13.353 22.507 C 11.84 21.399 10.655 19.903 9.924 18.177 C 9.894 18.097 9.864 18.02 9.83 17.943 C 9.058 16.022 7.727 14.376 6.011 13.217 C 4.294 12.057 2.27 11.437 0.198 11.437 L 0 11.437 L 0 3.308 L 0.198 3.308 C 4.37 3.301 8.421 4.709 11.689 7.301 C 14.116 9.218 16.022 11.713 17.236 14.556 C 17.44 15.044 17.807 15.446 18.275 15.693 C 18.742 15.941 19.281 16.019 19.8 15.914 C 20.319 15.809 20.785 15.527 21.119 15.117 C 21.453 14.708 21.635 14.195 21.633 13.666 C 21.633 13.546 21.623 13.426 21.603 13.308 C 21.599 13.264 21.591 13.22 21.58 13.177 C 21.326 11.689 21.401 10.163 21.799 8.706 C 22.197 7.249 22.908 5.897 23.883 4.743 C 24.858 3.59 26.073 2.663 27.444 2.027 C 28.815 1.391 30.308 1.062 31.819 1.062 C 32.154 1.062 32.465 1.062 32.783 1.106 C 34.664 1.281 36.462 1.966 37.982 3.087 C 39.503 4.207 40.688 5.721 41.411 7.465 C 41.441 7.548 41.475 7.629 41.512 7.709 C 42.293 9.608 43.621 11.232 45.327 12.376 C 47.032 13.521 49.04 14.134 51.094 14.138 Z" fill="rgb(253,253,253)"></path><path d="M 59.548 5.691 L 51.094 5.691 L 51.094 14.138 L 59.548 14.138 Z" fill="rgb(253,253,253)"></path></g><path d="M 89.625 9.914 L 93.508 9.914 L 89.001 24.073 L 85.515 24.073 L 82.908 15.493 L 80.301 24.073 L 76.815 24.073 L 72.308 9.914 L 76.191 9.914 L 78.6 18.608 L 81.179 9.914 L 84.637 9.914 L 87.216 18.636 Z" fill="rgb(253,253,253)"></path><path d="M 102.507 9.517 C 104.056 9.517 105.332 10.036 106.333 11.075 C 107.353 12.113 107.864 13.548 107.864 15.379 L 107.864 24.073 L 104.208 24.073 L 104.208 15.832 C 104.208 14.888 103.952 14.171 103.442 13.68 C 102.932 13.17 102.252 12.916 101.402 12.916 C 100.457 12.916 99.701 13.208 99.134 13.793 C 98.568 14.379 98.284 15.257 98.284 16.427 L 98.284 24.073 L 94.628 24.073 L 94.628 4.25 L 98.284 4.25 L 98.284 11.5 C 99.172 10.178 100.58 9.517 102.507 9.517 Z" fill="rgb(253,253,253)"></path><path d="M 120.905 9.914 L 124.561 9.914 L 124.561 24.073 L 120.905 24.073 L 120.905 22.402 C 119.809 23.78 118.269 24.47 116.285 24.47 C 114.396 24.47 112.771 23.752 111.411 22.317 C 110.069 20.864 109.398 19.089 109.398 16.993 C 109.398 14.898 110.069 13.133 111.411 11.698 C 112.771 10.244 114.396 9.517 116.285 9.517 C 118.269 9.517 119.809 10.206 120.905 11.585 Z M 114.16 19.882 C 114.896 20.618 115.832 20.986 116.965 20.986 C 118.099 20.986 119.034 20.618 119.771 19.882 C 120.527 19.127 120.905 18.164 120.905 16.993 C 120.905 15.823 120.527 14.869 119.771 14.133 C 119.034 13.378 118.099 13 116.965 13 C 115.832 13 114.896 13.378 114.16 14.133 C 113.423 14.869 113.054 15.823 113.054 16.993 C 113.054 18.164 113.423 19.127 114.16 19.882 Z" fill="rgb(253,253,253)"></path><path d="M 135.132 13.425 L 131.929 13.425 L 131.929 19.316 C 131.929 19.806 132.052 20.165 132.298 20.392 C 132.543 20.618 132.902 20.75 133.375 20.788 C 133.847 20.807 134.433 20.798 135.132 20.76 L 135.132 24.073 C 132.619 24.356 130.843 24.12 129.804 23.365 C 128.783 22.61 128.273 21.26 128.273 19.316 L 128.273 13.425 L 125.807 13.425 L 125.807 9.914 L 128.273 9.914 L 128.273 7.054 L 131.929 5.949 L 131.929 9.914 L 135.132 9.914 Z" fill="rgb(253,253,253)"></path><path d="M 145.107 9.517 C 147.015 9.517 148.64 10.244 149.981 11.698 C 151.343 13.133 152.022 14.898 152.022 16.993 C 152.022 19.089 151.343 20.864 149.981 22.317 C 148.64 23.752 147.015 24.47 145.107 24.47 C 143.122 24.47 141.592 23.78 140.515 22.402 L 140.515 24.073 L 136.859 24.073 L 136.859 4.25 L 140.515 4.25 L 140.515 11.585 C 141.592 10.206 143.122 9.517 145.107 9.517 Z M 141.621 19.882 C 142.358 20.618 143.292 20.986 144.426 20.986 C 145.561 20.986 146.495 20.618 147.232 19.882 C 147.988 19.127 148.367 18.164 148.367 16.993 C 148.367 15.823 147.988 14.869 147.232 14.133 C 146.495 13.378 145.561 13 144.426 13 C 143.292 13 142.358 13.378 141.621 14.133 C 140.884 14.869 140.515 15.823 140.515 16.993 C 140.515 18.164 140.884 19.127 141.621 19.882 Z" fill="rgb(253,253,253)"></path><path d="M 162.435 9.914 L 166.347 9.914 L 161.189 24.073 C 160.452 26.112 159.469 27.585 158.242 28.491 C 157.032 29.416 155.521 29.831 153.707 29.737 L 153.707 26.339 C 154.69 26.358 155.464 26.15 156.031 25.716 C 156.617 25.281 157.079 24.583 157.419 23.62 L 151.609 9.914 L 155.606 9.914 L 159.291 19.429 Z" fill="rgb(253,253,253)"></path><path d="M 175.343 13.425 L 172.14 13.425 L 172.14 19.316 C 172.14 19.806 172.262 20.165 172.509 20.392 C 172.754 20.618 173.113 20.75 173.585 20.788 C 174.057 20.807 174.643 20.798 175.343 20.76 L 175.343 24.073 C 172.829 24.356 171.053 24.12 170.014 23.365 C 168.994 22.61 168.484 21.26 168.484 19.316 L 168.484 13.425 L 166.018 13.425 L 166.018 9.914 L 168.484 9.914 L 168.484 7.054 L 172.14 5.949 L 172.14 9.914 L 175.343 9.914 Z" fill="rgb(253,253,253)"></path><path d="M 179.717 18.494 C 180.208 20.269 181.54 21.156 183.712 21.156 C 185.11 21.156 186.168 20.684 186.887 19.74 L 189.835 21.44 C 188.437 23.46 186.377 24.47 183.656 24.47 C 181.314 24.47 179.434 23.762 178.016 22.346 C 176.599 20.93 175.89 19.146 175.89 16.993 C 175.89 14.86 176.589 13.085 177.987 11.67 C 179.385 10.235 181.18 9.517 183.372 9.517 C 185.451 9.517 187.161 10.235 188.502 11.67 C 189.863 13.104 190.543 14.879 190.543 16.993 C 190.543 17.465 190.495 17.966 190.402 18.494 Z M 179.66 15.663 L 186.887 15.663 C 186.679 14.7 186.245 13.982 185.583 13.51 C 184.94 13.038 184.204 12.802 183.372 12.802 C 182.39 12.802 181.577 13.057 180.935 13.567 C 180.293 14.058 179.867 14.756 179.66 15.663 Z" fill="rgb(253,253,253)"></path><path d="M 195.063 13.935 C 195.063 14.313 195.31 14.624 195.801 14.869 C 196.311 15.096 196.925 15.304 197.642 15.493 C 198.361 15.663 199.079 15.889 199.798 16.172 C 200.515 16.436 201.12 16.89 201.611 17.532 C 202.121 18.173 202.377 18.976 202.377 19.939 C 202.377 21.392 201.828 22.516 200.732 23.309 C 199.656 24.083 198.305 24.47 196.68 24.47 C 193.77 24.47 191.785 23.346 190.728 21.1 L 193.902 19.316 C 194.318 20.543 195.244 21.156 196.68 21.156 C 197.983 21.156 198.635 20.75 198.635 19.939 C 198.635 19.561 198.38 19.259 197.869 19.032 C 197.379 18.787 196.773 18.57 196.056 18.381 C 195.339 18.192 194.62 17.956 193.902 17.673 C 193.183 17.39 192.57 16.946 192.059 16.342 C 191.569 15.719 191.323 14.945 191.323 14.02 C 191.323 12.623 191.834 11.528 192.853 10.735 C 193.892 9.923 195.177 9.517 196.708 9.517 C 197.861 9.517 198.909 9.782 199.854 10.31 C 200.798 10.82 201.544 11.556 202.093 12.519 L 198.975 14.218 C 198.521 13.255 197.766 12.774 196.708 12.774 C 196.236 12.774 195.839 12.878 195.517 13.085 C 195.215 13.293 195.063 13.576 195.063 13.935 Z" fill="rgb(253,253,253)"></path></svg>